Coordinates
version=1
nRows=18
nColumns=63
inDegrees=yes

Units are S.I. units (second, meters, Newtons, ...)
If the header above contains a line with 'inDegrees', this indicates whether rotational values are in degrees (yes) or radians (no).

endheader
time	pelvis_tilt	pelvis_list	pelvis_rotation	pelvis_tx	pelvis_ty	pelvis_tz	hip_flexion_r	hip_adduction_r	hip_rotation_r	knee_angle_r	knee_angle_r_beta	ankle_angle_r	subtalar_angle_r	mtp_angle_r	hip_flexion_l	hip_adduction_l	hip_rotation_l	knee_angle_l	knee_angle_l_beta	ankle_angle_l	subtalar_angle_l	mtp_angle_l	L5_S1_Flex_Ext	L5_S1_Lat_Bending	L5_S1_axial_rotation	L4_L5_Flex_Ext	L4_L5_Lat_Bending	L4_L5_axial_rotation	L3_L4_Flex_Ext	L3_L4_Lat_Bending	L3_L4_axial_rotation	L2_L3_Flex_Ext	L2_L3_Lat_Bending	L2_L3_axial_rotation	L1_L2_Flex_Ext	L1_L2_Lat_Bending	L1_L2_axial_rotation	L1_T12_Flex_Ext	L1_T12_Lat_Bending	L1_T12_axial_rotation	Abs_r3	Abs_r2	Abs_r1	Abs_t1	Abs_t2	neck_flexion	neck_bending	neck_rotation	arm_flex_r	arm_add_r	arm_rot_r	elbow_flex_r	pro_sup_r	wrist_flex_r	wrist_dev_r	arm_flex_l	arm_add_l	arm_rot_l	elbow_flex_l	pro_sup_l	wrist_flex_l	wrist_dev_l
0.000000	-3.034638	-2.327200	94.736165	0.172996	0.988178	0.474093	1.336012	-3.665758	-13.765525	7.491072	0.130744	27.921986	16.586562	0.000000	1.145799	2.567364	12.127327	0.846605	0.014776	21.987447	-14.208136	0.000000	0.203737	-0.190026	-0.597137	0.378359	-0.252734	-0.634458	0.334719	-0.462028	-0.634458	0.232850	-0.462028	-0.522495	0.189190	-0.387500	-0.485173	0.116415	-0.294350	-0.447852	1.455270	-2.149607	-3.321095	0.000000	0.000000	21.557181	-2.507890	-2.474905	17.097266	-5.815037	67.407343	33.200913	81.883039	12.170816	-18.665989	14.337403	-7.526719	54.949809	36.888975	71.023869	11.995912	-18.079656
0.023256	-3.201519	-2.393766	94.033631	0.173672	0.988699	0.474096	1.616159	-3.823323	-13.199776	7.617545	0.132951	27.954220	16.816256	0.000000	1.144656	2.701332	9.986151	0.802819	0.014012	22.338850	-11.847312	0.000000	0.207233	-0.217560	-0.435186	0.384852	-0.289355	-0.462385	0.340463	-0.528976	-0.462385	0.236846	-0.528976	-0.380788	0.192436	-0.443649	-0.353589	0.118413	-0.337001	-0.326390	1.480244	-2.461087	-2.420376	0.000000	0.000000	22.330640	-2.720203	-3.872347	16.470503	-5.643071	64.831371	35.708080	81.648739	11.576181	-19.354299	14.930791	-7.849316	56.506595	37.071745	75.369095	13.337947	-18.021278
0.046512	-3.331443	-2.470286	93.481036	0.174230	0.988922	0.474086	1.859390	-3.949383	-12.763580	7.729405	0.134904	27.984799	17.002703	0.000000	1.157286	2.803130	8.284185	0.781426	0.013638	22.631206	-9.956501	0.000000	0.211674	-0.240337	-0.302300	0.393100	-0.319649	-0.321193	0.347759	-0.584356	-0.321193	0.241922	-0.584356	-0.264512	0.196561	-0.490096	-0.245619	0.120951	-0.372282	-0.226725	1.511966	-2.718743	-1.681300	0.000000	0.000000	23.049414	-2.879406	-4.946228	15.985931	-5.491282	63.061514	37.154782	81.560567	11.080010	-19.942369	15.367324	-8.091423	57.592384	37.248875	78.682380	14.600916	-17.938811
0.069767	-3.429059	-2.555211	93.065206	0.174691	0.988885	0.474071	2.069341	-4.047250	-12.444198	7.827586	0.136617	28.014534	17.149838	0.000000	1.183422	2.876275	6.973582	0.780948	0.013630	22.871056	-8.483178	0.000000	0.216930	-0.259155	-0.195677	0.402861	-0.344676	-0.207907	0.356395	-0.630109	-0.207907	0.247930	-0.630109	-0.171218	0.201441	-0.528468	-0.158988	0.123954	-0.401431	-0.146758	1.549511	-2.931610	-1.088298	0.000000	0.000000	23.714234	-2.992865	-5.738955	15.632438	-5.354311	61.960813	37.721726	81.601197	10.681723	-20.399237	15.669217	-8.261228	58.260476	37.409454	81.053803	15.755408	-17.825785
0.093023	-3.499020	-2.646993	92.772969	0.175075	0.988624	0.474060	2.249648	-4.120238	-12.228890	7.913024	0.138108	28.044233	17.261598	0.000000	1.222796	2.924285	6.006495	0.799909	0.013961	23.064938	-7.374814	0.000000	0.222872	-0.274812	-0.112519	0.413895	-0.365499	-0.119551	0.366156	-0.668177	-0.119551	0.254720	-0.668177	-0.098454	0.206959	-0.560396	-0.091421	0.127349	-0.425683	-0.084389	1.591949	-3.108724	-0.625796	0.000000	0.000000	24.325832	-3.067943	-6.292934	15.398913	-5.226801	61.392304	37.589620	81.753302	10.380736	-20.693944	15.858684	-8.366919	58.564168	37.542571	82.573445	16.772012	-17.675730
0.116279	-3.545975	-2.744084	92.591153	0.175403	0.988176	0.474061	2.403945	-4.171659	-12.104919	7.986655	0.139393	28.074703	17.341918	0.000000	1.275142	2.950675	5.335075	0.836832	0.014605	23.219393	-6.578883	0.000000	0.229368	-0.288107	-0.050025	0.425960	-0.383182	-0.053151	0.376829	-0.700502	-0.053151	0.262145	-0.700502	-0.043772	0.212992	-0.587507	-0.040645	0.131061	-0.446277	-0.037519	1.638356	-3.259120	-0.278222	0.000000	0.000000	24.884943	-3.112006	-6.650573	15.274245	-5.103393	61.219027	36.939172	81.999554	10.176469	-20.795529	15.957940	-8.416685	58.556759	37.637313	83.331384	17.621318	-17.482177
0.139535	-3.574576	-2.844937	92.506583	0.175695	0.987577	0.474082	2.535868	-4.204827	-12.059545	8.049415	0.140489	28.106755	17.394735	0.000000	1.340192	2.958964	4.911475	0.890242	0.015538	23.340961	-6.042856	0.000000	0.236291	-0.299839	-0.005395	0.438816	-0.398785	-0.005732	0.388202	-0.729027	-0.005732	0.270057	-0.729027	-0.004721	0.219420	-0.611431	-0.004384	0.135017	-0.464450	-0.004046	1.687802	-3.391833	-0.030007	0.000000	0.000000	25.392297	-3.132416	-6.854278	15.247324	-4.978732	61.304020	35.951088	82.322626	10.068339	-20.673032	15.989200	-8.418713	58.291548	37.682767	83.417700	18.273916	-17.238655
0.162791	-3.589474	-2.948003	92.506087	0.175972	0.986863	0.474131	2.649053	-4.223056	-12.080029	8.102239	0.141411	28.141196	17.423985	0.000000	1.417680	2.952668	4.687848	0.958663	0.016732	23.436182	-5.714206	0.000000	0.243509	-0.310806	0.024169	0.452221	-0.413372	0.025680	0.400062	-0.755694	0.025680	0.278307	-0.755694	0.021148	0.226123	-0.633796	0.019638	0.139141	-0.481438	0.018127	1.739363	-3.515899	0.134423	0.000000	0.000000	25.848628	-3.136538	-6.946458	15.307036	-4.847458	61.510322	34.806077	82.705190	10.055765	-20.295493	15.974678	-8.381193	57.821831	37.668023	82.922472	18.700395	-16.938693
0.186047	-3.595320	-3.051735	92.576492	0.176254	0.986072	0.474216	2.747135	-4.229657	-12.153632	8.146063	0.142176	28.178835	17.433603	0.000000	1.507339	2.935305	4.616346	1.040617	0.018162	23.511596	-5.540407	0.000000	0.250894	-0.321808	0.041469	0.465935	-0.428004	0.044061	0.412194	-0.782443	0.044061	0.286747	-0.782443	0.036285	0.232980	-0.656230	0.033694	0.143361	-0.498480	0.031102	1.792110	-3.640353	0.230639	0.000000	0.000000	26.254668	-3.131736	-6.969518	15.442273	-4.704214	61.700971	33.684847	83.129919	10.138165	-19.631951	15.936588	-8.312313	57.200909	37.582168	81.935778	18.871345	-16.575822
0.209302	-3.596764	-3.154585	92.704624	0.176561	0.985239	0.474346	2.833750	-4.227945	-12.267615	8.181823	0.142800	28.220481	17.427526	0.000000	1.608901	2.910392	4.649121	1.134628	0.019803	23.573743	-5.468929	0.000000	0.258315	-0.333642	0.049304	0.479716	-0.443744	0.052385	0.424385	-0.811218	0.052385	0.295228	-0.811218	0.043141	0.239871	-0.680364	0.040059	0.147601	-0.516812	0.036978	1.845117	-3.774230	0.274212	0.000000	0.000000	26.611149	-3.125376	-6.965865	15.641922	-4.543642	61.739005	32.768104	83.579485	10.314957	-18.651446	15.897145	-8.220260	56.482078	37.414290	80.547699	18.757356	-16.143572
0.232558	-3.598458	-3.255004	92.877311	0.176915	0.984402	0.474528	2.912532	-4.221232	-12.409240	8.210453	0.143299	28.266943	17.409690	0.000000	1.722099	2.881445	4.738326	1.239221	0.021628	23.629163	-5.447246	0.000000	0.265642	-0.347109	0.050473	0.493324	-0.461655	0.053627	0.436424	-0.843961	0.053627	0.303603	-0.843961	0.044164	0.246675	-0.707825	0.041009	0.151788	-0.537672	0.037855	1.897456	-3.926566	0.280715	0.000000	0.000000	26.918806	-3.124820	-6.977907	15.894873	-4.360385	61.487464	32.236556	84.036562	10.585559	-17.323018	15.878565	-8.113224	55.718638	37.153478	78.848314	18.329017	-15.635473
0.255814	-3.661589	-3.360110	93.094501	0.177519	0.983621	0.474732	2.985821	-4.256743	-12.554021	8.207381	0.143246	28.322349	17.390876	0.000000	1.862061	2.896298	4.658936	1.354025	0.023632	23.739070	-5.133244	0.000000	0.275615	-0.377148	0.042098	0.511845	-0.501606	0.044729	0.452808	-0.916997	0.044729	0.315000	-0.916997	0.036836	0.255936	-0.769079	0.034205	0.157486	-0.584202	0.031574	1.968690	-4.266369	0.234138	0.000000	0.000000	27.277506	-3.159770	-7.429620	15.961702	-4.144282	59.856300	32.965527	84.605695	11.782502	-15.163401	16.017607	-8.034032	55.041887	36.479697	76.275545	17.153207	-14.941380
0.279070	-3.733637	-3.453036	93.321022	0.178212	0.982951	0.475041	3.060678	-4.293493	-12.685377	8.213589	0.143354	28.402197	17.360129	0.000000	2.010346	2.914152	4.567856	1.476542	0.025771	23.825798	-4.846578	0.000000	0.284490	-0.408751	0.030153	0.528326	-0.543639	0.032038	0.467388	-0.993838	0.032038	0.325143	-0.993838	0.026384	0.264177	-0.833526	0.024500	0.162558	-0.633156	0.022615	2.032083	-4.623877	0.167704	0.000000	0.000000	27.522573	-3.208435	-7.874913	15.940900	-3.893550	57.545106	34.739888	84.985936	13.152934	-12.396619	16.196708	-7.974911	54.365573	35.666463	73.745827	15.532946	-14.109479
0.302326	-3.795741	-3.538516	93.541160	0.178953	0.982406	0.475444	3.147206	-4.314732	-12.802131	8.229095	0.143625	28.492809	17.330705	0.000000	2.171751	2.917723	4.364175	1.605064	0.028014	23.936518	-4.444843	0.000000	0.292026	-0.438730	0.021792	0.542322	-0.583511	0.023154	0.479770	-1.066729	0.023154	0.333757	-1.066729	0.019068	0.271175	-0.894659	0.017706	0.166864	-0.679593	0.016344	2.085913	-4.963005	0.121199	0.000000	0.000000	27.693221	-3.300854	-8.351454	15.934335	-3.593808	54.597245	37.717477	85.149834	14.248376	-9.093770	16.406835	-7.900974	53.671412	34.765125	71.801238	13.610014	-13.080112
0.325581	-3.847206	-3.618466	93.734417	0.179738	0.982007	0.475975	3.258194	-4.321941	-12.897761	8.258234	0.144133	28.584219	17.323438	0.000000	2.348937	2.907157	4.009864	1.739388	0.030358	24.073061	-3.885278	0.000000	0.297382	-0.466326	0.028833	0.552268	-0.620214	0.030635	0.488569	-1.133826	0.030635	0.339878	-1.133826	0.025229	0.276149	-0.950933	0.023427	0.169924	-0.722340	0.021625	2.124169	-5.275179	0.160359	0.000000	0.000000	27.813214	-3.473234	-8.890886	16.101504	-3.223138	51.039342	41.815131	85.211819	14.760192	-5.425235	16.747014	-7.790087	53.330853	33.794953	70.455697	11.360095	-11.959690
0.348837	-3.905575	-3.690302	93.886490	0.180609	0.981779	0.476614	3.387221	-4.328000	-12.955633	8.285822	0.144615	28.669733	17.323741	0.000000	2.534963	2.897958	3.446699	1.879316	0.032800	24.250870	-3.085831	0.000000	0.299489	-0.494147	0.056615	0.556182	-0.657216	0.060153	0.492031	-1.201470	0.060153	0.342286	-1.201470	0.049538	0.278106	-1.007666	0.046000	0.171128	-0.765434	0.042461	2.139222	-5.589895	0.314876	0.000000	0.000000	27.903093	-3.684783	-9.526420	16.566580	-2.762396	46.989642	46.869139	85.189954	14.671039	-1.596775	17.244808	-7.693752	53.418769	32.871400	69.624502	8.961151	-10.846178
0.372093	-3.966776	-3.758243	93.977263	0.181586	0.981729	0.477330	3.540699	-4.327385	-12.963405	8.308108	0.145004	28.744154	17.339158	0.000000	2.723291	2.886742	2.887980	2.008985	0.035063	24.400976	-2.361624	0.000000	0.299952	-0.522605	0.111569	0.557041	-0.695064	0.118542	0.492791	-1.270661	0.118542	0.342815	-1.270661	0.097623	0.278535	-1.065696	0.090650	0.171393	-0.809515	0.083677	2.142527	-5.911810	0.620515	0.000000	0.000000	27.937958	-3.924717	-10.374244	17.341605	-2.242492	42.441050	52.724502	85.230646	14.000398	2.071849	17.909443	-7.614991	54.024445	32.073971	69.398846	6.283137	-9.841686
0.395349	-4.006933	-3.809671	94.016982	0.182593	0.981898	0.478184	3.716003	-4.301989	-12.919331	8.338214	0.145529	28.796359	17.367194	0.000000	2.912890	2.853810	2.274081	2.142514	0.037394	24.524641	-1.636189	0.000000	0.297982	-0.546918	0.193719	0.553382	-0.727401	0.205827	0.489554	-1.329776	0.205827	0.340564	-1.329776	0.169504	0.276706	-1.115275	0.157397	0.170267	-0.847176	0.145290	2.128455	-6.186844	1.077409	0.000000	0.000000	27.889802	-4.251743	-11.352311	18.456289	-1.691638	37.582497	59.237268	85.202382	12.838636	5.475345	18.803003	-7.502247	55.339934	31.350769	69.684329	3.416979	-9.003243
